<?xml version="1.0" encoding="utf-8"?>
<!-- Generator: Adobe Illustrator 16.0.0, SVG Export Plug-In . SVG Version: 6.00 Build 0)  -->
<!DOCTYPE svg PUBLIC "-//W3C//DTD SVG 1.1//EN" "http://www.w3.org/Graphics/SVG/1.1/DTD/svg11.dtd">
<svg version="1.1"
	 id="svg3476" xmlns:dc="http://purl.org/dc/elements/1.1/" xmlns:rdf="http://www.w3.org/1999/02/22-rdf-syntax-ns#" xmlns:inkscape="http://www.inkscape.org/namespaces/inkscape" xmlns:sodipodi="http://sodipodi.sourceforge.net/DTD/sodipodi-0.dtd" xmlns:svg="http://www.w3.org/2000/svg" xmlns:cc="http://creativecommons.org/ns#" sodipodi:docname="CSS3.svg" inkscape:version="0.91 r13725"
	 xmlns="http://www.w3.org/2000/svg" xmlns:xlink="http://www.w3.org/1999/xlink" x="0px" y="0px" width="358.297px" height="504px"
	 viewBox="-34.055 -47.2 358.297 504" enable-background="new -34.055 -47.2 358.297 504" xml:space="preserve">
<sodipodi:namedview  inkscape:cx="181.367" showgrid="false" inkscape:zoom="0.35" fit-margin-top="0" inkscape:cy="256" id="base" pagecolor="#ffffff" borderopacity="1.0" bordercolor="#666666" fit-margin-left="0" inkscape:window-maximized="1" inkscape:window-y="27" inkscape:window-x="0" inkscape:window-height="704" inkscape:pageshadow="2" inkscape:window-width="1366" inkscape:pageopacity="0.0" fit-margin-bottom="0" inkscape:current-layer="layer1" inkscape:document-units="px" fit-margin-right="0">
	</sodipodi:namedview>
<g>
	<path fill="#264DE4" d="M-34.465,53.062l32.238,361.579L142.434,454.8l145.063-40.217l32.271-361.521H-34.465z M259.869,391.563
		l-117.218,32.498v-46.02l-0.203,0.056l-90.84-25.218l-6.213-69.629h20.519h23.998l3.158,35.368l49.388,13.335l0.041-0.011v-0.003
		l0.153-0.042v-70.821h-0.153H43.413l-3.975-44.346h103.059h0.153v-45.412h-0.153H35.484l-4.032-44.346h111.046h0.153V82.626
		h144.796L259.869,391.563z"/>
	<polygon fill="#2965F1" points="204.986,171.319 142.651,171.319 142.651,216.731 200.953,216.731 	"/>
	<polygon fill="#2965F1" points="197.105,261.076 142.651,261.076 142.651,331.898 191.959,318.59 	"/>
	<polygon fill="#2965F1" points="142.651,126.973 253.588,126.973 245.582,216.731 244.498,228.638 234.078,345.387 233.41,352.879 
		142.651,378.032 142.651,378.041 142.651,424.061 259.869,391.563 287.447,82.626 142.651,82.626 	"/>
	<polygon points="102.613,-0.278 71.363,-0.278 71.363,-22.74 102.613,-22.74 102.613,-45.2 48.902,-45.2 48.902,22.183 
		102.613,22.183 	"/>
	<polygon points="167.066,-21.762 135.816,-21.762 135.816,-25.669 167.066,-25.669 167.066,-45.2 113.354,-45.2 113.354,-1.255 
		144.605,-1.255 144.605,2.652 113.354,2.652 113.354,23.159 167.066,23.159 	"/>
	<polygon points="231.519,-21.762 200.269,-21.762 200.269,-25.669 231.519,-25.669 231.519,-45.2 177.808,-45.2 177.808,-1.255 
		209.058,-1.255 209.058,2.652 177.808,2.652 177.808,23.159 231.519,23.159 	"/>
	
		<rect x="142.495" y="331.919" transform="matrix(0.9645 -0.2642 0.2642 0.9645 -82.6147 49.4519)" fill="#FFFFFF" width="0.159" height="0.003"/>
</g>
<polygon id="polygon2989_1_" fill="#264DE4" points="-165.813,80.496 -192.249,376.655 -311.084,409.6 -429.591,376.701 
	-456,80.496 "/>
<polygon id="polygon2991_1_" fill="#2965F1" points="-214.882,357.796 -192.29,104.715 -310.906,104.715 -310.906,384.418 "/>
<polygon id="polygon2993_1_" fill="#EBEBEB" points="-395.458,214.573 -392.202,250.902 -310.906,250.902 -310.906,214.573 "/>
<polygon id="polygon2995_1_" fill="#EBEBEB" points="-310.906,141.044 -311.032,141.044 -402.001,141.044 -398.698,177.372 
	-310.906,177.372 "/>
<polygon id="polygon2997_1_" fill="#EBEBEB" points="-310.906,346.719 -310.906,308.922 -311.066,308.964 -351.525,298.04 
	-354.112,269.067 -373.771,269.067 -390.579,269.067 -385.49,326.107 -311.073,346.765 "/>
<path id="path2999_1_" inkscape:connector-curvature="0" d="M-387.706,0h44V18.4h-25.6v18.4h25.6v18.4h-44V0z"/>
<path id="path3001_1_" inkscape:connector-curvature="0" d="M-334.906,0h44v16h-25.6v3.2h25.6V56h-44V39.2h25.601V36h-25.601V0z"/>
<path id="path3003_1_" inkscape:connector-curvature="0" d="M-282.107,0h44v16h-25.6v3.2h25.6V56h-44V39.2h25.601V36h-25.601V0z"/>
<polygon id="polygon3005_1_" fill="#FFFFFF" points="-266.298,250.902 -270.515,298.017 -311.032,308.952 -311.032,346.747 
	-236.557,326.107 -236.01,319.969 -227.474,224.328 -226.587,214.573 -220.029,141.044 -311.032,141.044 -311.032,177.372 
	-259.842,177.372 -263.147,214.573 -311.032,214.573 -311.032,250.902 "/>
</svg>
