<?xml version="1.0" encoding="utf-8"?>
<!-- Generator: Adobe Illustrator 16.0.0, SVG Export Plug-In . SVG Version: 6.00 Build 0)  -->
<!DOCTYPE svg PUBLIC "-//W3C//DTD SVG 1.1//EN" "http://www.w3.org/Graphics/SVG/1.1/DTD/svg11.dtd">
<svg version="1.1" id="Layer_1" xmlns="http://www.w3.org/2000/svg" xmlns:xlink="http://www.w3.org/1999/xlink" x="0px" y="0px"
	 width="318.25px" height="318.438px" viewBox="57.695 80.328 318.25 318.438"
	 enable-background="new 57.695 80.328 318.25 318.438" xml:space="preserve">
<title>HTML5 Logo</title>
<g>
	<path d="M-95.658-510.375h22.461v22.266h20.703v-22.266h22.461v67.383h-22.461v-22.46h-20.508v22.46h-22.656 M-0.346-487.914
		H-20.17v-22.461h62.207v22.461H22.115v44.922H-0.346 M51.9-510.375h23.534l14.454,23.731l14.453-23.731h23.535v67.383h-22.46
		v-33.398l-15.723,24.22l-15.722-24.22v33.398H51.9 M139.009-510.375h22.461v45.117h31.835v22.266h-54.297"/>
	<polygon fill="#E44D26" points="-14.213,-293.87 -10.112,-248.461 48.287,-248.461 48.482,-248.461 48.482,-293.87 48.287,-293.87 
			"/>
	<path fill="#E44D26" d="M-128.666-412.132L-96.44-50.415l144.629,40.04L193.404-50.61l32.227-361.522H-128.666z M165.669-73.853
		L48.482-41.137v-45.801l-91.016-25.392l-6.25-69.629h44.531l3.124,35.45l49.513,13.255l0.098-0.024v-70.848h-0.195v-0.099h-99.023
		l-12.109-133.983H48.287h0.195v-44.237h144.824L165.669-73.853z"/>
	<polygon fill="#F16529" points="102.974,-204.125 48.482,-204.125 48.482,-133.278 97.799,-146.508 	"/>
	<polygon fill="#F16529" points="48.482,-338.207 159.42,-338.207 155.318,-293.87 48.482,-293.87 48.482,-248.461 
		151.315,-248.461 139.107,-112.329 48.482,-87.188 48.482,-86.938 48.482,-41.137 165.669,-73.853 193.306,-382.445 
		48.482,-382.445 	"/>
	<polygon fill="#FFFFFF" points="48.482,-133.278 48.385,-133.253 48.482,-133.227 	"/>
	<rect x="48.287" y="-204.224" fill="#FFFFFF" width="0.195" height="0.099"/>
</g>
<path d="M-475.784,14.605h23.318V37.72h21.493V14.605h23.318v69.954h-23.318V61.241h-21.29v23.318h-23.521 M-376.836,37.923h-20.581
	V14.605h64.58v23.318h-20.682v46.636h-23.318 M-322.596,14.605h24.432l15.006,24.636l15.004-24.636h24.434v69.954h-23.318V49.886
	l-16.322,25.143l-16.322-25.143v34.672h-22.913 M-232.164,14.605h23.318v46.838h33.05v23.115h-56.368"/>
<path fill="#E44D26" d="M-476.595,492.112l-33.456-375.516h367.813l-33.456,375.314l-150.754,41.77"/>
<path fill="#F16529" d="M-326.145,501.744V147.416h150.349l-28.691,320.365"/>
<path fill="#EBEBEB" d="M-441.72,193.341h115.575v46.028h-65.087l4.258,47.143h60.829v45.925h-103.003 M-427.121,355.552h46.23
	l3.243,36.802l51.502,13.788v48.055l-94.487-26.359"/>
<path fill="#FFFFFF" d="M-210.975,193.341h-115.373v46.028h111.114 M-219.39,286.511h-106.958v46.026h56.773l-5.373,59.815
	l-51.4,13.788v47.852l94.285-26.156"/>
<polygon fill="#E44D26" points="217.09,166.406 313.221,166.406 316.914,126.51 217.09,126.51 216.914,126.51 116.914,126.51 
	127.811,247.072 216.914,247.072 216.914,247.159 266.122,247.159 261.465,299.006 217.002,310.931 172.449,299.006 
	169.638,267.107 129.568,267.107 135.192,329.76 217.09,352.607 217.09,352.383 298.636,329.76 309.619,207.266 217.09,207.266 
	216.914,207.266 164.365,207.266 160.675,166.406 216.914,166.406 "/>
<path fill="none" stroke="#E44D26" stroke-width="18.4336" stroke-miterlimit="10" d="M366.914,366.123
	c0,12.943-9.372,23.436-20.933,23.436H87.846c-11.561,0-20.933-10.492-20.933-23.436V112.996c0-12.944,9.372-23.438,20.933-23.438
	h258.135c11.561,0,20.933,10.494,20.933,23.438V366.123z"/>
</svg>
