<?xml version="1.0" encoding="utf-8"?>
<!-- Generator: Adobe Illustrator 16.0.0, SVG Export Plug-In . SVG Version: 6.00 Build 0)  -->
<!DOCTYPE svg PUBLIC "-//W3C//DTD SVG 1.1//EN" "http://www.w3.org/Graphics/SVG/1.1/DTD/svg11.dtd">
<svg version="1.1" id="Layer_1" xmlns="http://www.w3.org/2000/svg" xmlns:xlink="http://www.w3.org/1999/xlink" x="0px" y="0px"
	 width="504px" height="123.451px" viewBox="9.795 2.399 504 123.451" enable-background="new 9.795 2.399 504 123.451"
	 xml:space="preserve">
<g>
	<path fill="#131B28" d="M225.604,46.98l0.001-0.005l-3.2,11.345L225.604,46.98L225.604,46.98z"/>
	<path fill="#131B28" d="M242.068,71.608l-3.527-0.021L242.068,71.608z"/>
	<path fill="#131B28" d="M241.16,88.55h0.004l-21.134,0.077L241.16,88.55L241.16,88.55z"/>
	<path fill="#131B28" d="M245.592,71.63l-3.529-0.021L245.592,71.63z"/>
	<path fill="#131B28" d="M243.013,87.11l3.681-14.039l-3.681,14.041V87.11L243.013,87.11z"/>
	<path fill="#131B28" d="M320.821,22.456l-6.856,32.239L320.821,22.456z"/>
	<path fill="#131B28" d="M303.193,22.456l-5.205,24.083l5.205-24.085V22.456z"/>
	<path fill="#131B28" d="M319.647,21.006h-14.664c-0.813,0-1.621,0.653-1.795,1.448l-5.206,24.085l-5.206,24.086
		c-0.173,0.794-0.979,1.445-1.793,1.445h-8.897h-1.481c-10.269,0-9.081-7.103-6.979-16.833c0.021-0.098,0.042-0.194,0.063-0.294
		l0.23-1.226c0.014-0.08,0.031-0.159,0.044-0.231l0.468-2.497l0.503-2.676c0.152-0.807,0.384-1.986,0.536-2.728l2.366-11.563
		l2.368-11.563c0.163-0.797-0.37-1.453-1.185-1.453h-15.051c-0.813,0-1.619,0.655-1.786,1.45l-3.236,15.354l-3.236,15.353
		c-0.003,0.006-0.004,0.017-0.005,0.023l-0.301,1.427c-3.728,17.019-2.739,33.248,17.521,33.756c0.331,0.01,0.588,0.012,0.588,0.012
		h31.801c0.813,0,1.619-0.653,1.789-1.449l6.858-32.236l6.856-32.238C320.989,21.66,320.46,21.007,319.647,21.006L319.647,21.006z"
		/>
	<path fill="#131B28" d="M378.146,72.238c0.815,0,1.348,0.652,1.185,1.45l-1.424,6.959"/>
	<path fill="#131B28" d="M376.485,87.61l1.424-6.965l-1.425,6.967C376.484,87.61,376.485,87.61,376.485,87.61L376.485,87.61z"/>
	<path fill="#131B28" d="M374.698,89.075c0.003,0,0.006-0.002,0.007-0.002c-4.315,0.035-17.283,0.134-27.03,0.134
		C359.536,89.207,374.698,89.076,374.698,89.075L374.698,89.075z"/>
	<path fill="#131B28" d="M338.926,63.274c-0.011-0.762,0.856-2.075,1.672-2.075l-1.832-0.03
		C337.941,69.469,338.926,63.274,338.926,63.274L338.926,63.274z"/>
	<path fill="#131B28" d="M349.011,89.203c-0.093,0-0.189,0-0.282,0.002C348.822,89.203,348.918,89.203,349.011,89.203z"/>
	<path fill="#131B28" d="M378.146,72.238c0.815,0,1.348,0.652,1.185,1.45l-1.424,6.959l-0.232,1.136"/>
	<path fill="#131B28" d="M355.953,89.188h-0.059H355.953z"/>
	<path fill="#131B28" d="M352.354,89.198h-0.209H352.354z"/>
	<path fill="#131B28" d="M351.255,89.201c-0.117,0-0.23,0-0.346,0.002C351.025,89.201,351.138,89.201,351.255,89.201z"/>
	<path fill="#131B28" d="M350.138,89.203h-0.304H350.138z"/>
	<path fill="#131B28" d="M352.144,89.198c-0.298,0-0.595,0.002-0.889,0.002C351.549,89.2,351.846,89.198,352.144,89.198z"/>
	<path fill="#131B28" d="M355.896,89.188c-1.187,0.004-2.371,0.009-3.538,0.012C353.525,89.197,354.711,89.191,355.896,89.188z"/>
	<path fill="#131B28" d="M374.708,89.072L374.708,89.072c-3.162,0.026-10.972,0.084-18.76,0.114
		C363.734,89.158,371.544,89.099,374.708,89.072z"/>
	<path fill="#131B28" d="M376.485,87.614l1.192-5.832l-1.193,5.836C376.484,87.616,376.485,87.616,376.485,87.614L376.485,87.614z"
		/>
	<path fill="#131B28" d="M350.911,89.203h-0.773H350.911z"/>
	<path fill="#131B28" d="M348.725,89.205h-1.047H348.725z"/>
	<path fill="#131B28" d="M349.831,89.203h-0.825H349.831z"/>
	<path fill="#131B28" d="M135.325,63.449l2.278-10.097l-2.605,11.541l-2.499,11.759l2.19-10.308
		C134.859,65.546,135.146,64.244,135.325,63.449L135.325,63.449z"/>
	<path fill="#131B28" d="M162.589,20.836h-16.104c-0.815,0-1.627,0.65-1.809,1.443l-1.527,6.74l-1.527,6.742
		c-0.18,0.792,0.34,1.443,1.154,1.443h16.229c0.814,0,1.623-0.65,1.798-1.445l1.476-6.74l1.476-6.735v-0.002
		C163.927,21.487,163.404,20.836,162.589,20.836L162.589,20.836z"/>
	<path fill="#131B28" d="M159.085,43.257v-0.002l-4.725,21.851L159.085,43.257z"/>
	<path fill="#131B28" d="M112.302,115.658c0,0,8.118,0.104,13.278,0.104c-3.919,0-10.395-0.07-13.284-0.105
		C112.298,115.656,112.3,115.658,112.302,115.658L112.302,115.658z"/>
	<path fill="#131B28" d="M139.881,43.254l-2.28,10.098L139.881,43.254z"/>
	<path fill="#131B28" d="M157.919,41.809h-16.231c-0.813,0-1.627,0.651-1.807,1.446l-2.28,10.098l-2.278,10.097
		c-0.179,0.795-0.466,2.099-0.635,2.895l-2.19,10.308l-2.188,10.306c-0.171,0.797-0.521,2.08-0.782,2.853
		c0,0-3.032,9.022-8.129,8.92c-0.217-0.005-0.428-0.007-0.637-0.013c-2.469-0.047-4.411-0.081-4.411-0.081h-0.004
		c-0.812-0.012-1.629,0.622-1.819,1.413l-1.683,7.076l-1.682,7.072c-0.188,0.791,0.322,1.443,1.131,1.458
		c2.891,0.034,9.365,0.106,13.285,0.106c12.733,0,19.445-7.055,23.749-27.355l5.036-23.301l4.723-21.851
		C159.257,42.46,158.732,41.809,157.919,41.809L157.919,41.809z"/>
	<path fill="#131B28" d="M388.488,88.381c-0.813,0-1.342-0.653-1.17-1.451l12.21-57.191"/>
	<path fill="#131B28" d="M405.456,86.928l4.938-24.41L405.456,86.928z"/>
	<path fill="#131B28" d="M387.494,87.655c-0.099-0.398-0.041-1.375,0.132-2.173l5.795-27.147l-6.104,28.594
		c-0.172,0.798,0.356,1.451,1.17,1.451h1.483C389.155,88.381,387.593,88.054,387.494,87.655L387.494,87.655z"/>
	<path fill="#131B28" d="M404.492,88.054c-0.443,0.18-1.474,0.327-2.287,0.327h1.482c0.813,0,1.612-0.653,1.773-1.453l0.294-1.45
		C405.593,86.274,404.938,87.874,404.492,88.054L404.492,88.054z"/>
	<path fill="#131B28" d="M407.931,74.723l2.18-10.773c-0.001,0.006-0.002,0.016-0.004,0.021L407.931,74.723L407.931,74.723z"/>
	<path fill="#131B28" d="M456.107,33.57l0.672,2.779c0.186,0.795-0.328,1.441-1.141,1.443"/>
	<path fill="#131B28" d="M405.753,85.479l2.174-10.754L405.753,85.479z"/>
	<path fill="#131B28" d="M455.438,30.723l0.666,2.847L455.438,30.723z"/>
	<path fill="#131B28" d="M410.108,63.95c0.162-0.797,0.431-2.089,0.6-2.879l2.327-10.906l-2.636,12.354L410.108,63.95L410.108,63.95
		z"/>
	<path fill="#131B28" d="M399.727,28.802c-0.161,0.769-0.369,1.741-0.506,2.385l-5.795,27.148l6.104-28.596L399.727,28.802
		L399.727,28.802z"/>
	<path fill="#131B28" d="M456.775,36.349l-0.672-2.779l-0.666-2.847l-0.337-1.441c-1.318-5.123-5.188-8.078-13.592-8.078
		l-13.083-0.014l-12.047-0.014h-1.034h-12.523c-0.813,0-1.619,0.65-1.787,1.448h-0.001l-0.599,2.833l-0.708,3.346l-0.196,0.937
		l-6.105,28.596l-5.794,27.147c-0.173,0.798-0.231,1.774-0.133,2.173s1.66,0.726,2.476,0.726h12.23c0.814,0,1.845-0.147,2.288-0.327
		c0.444-0.179,1.101-1.779,1.263-2.575l2.174-10.755l2.177-10.753c0.001-0.005,0.002-0.014,0.004-0.021l0.29-1.431l2.637-12.354
		l2.329-10.911c0.172-0.792,0.975-1.44,1.786-1.443l38.484-0.019C456.448,37.79,456.961,37.143,456.775,36.349L456.775,36.349z"/>
	<path fill="#131B28" d="M506.317,11.221c-0.814,0.005-2.146,0.011-2.961,0.011h-12.318c-0.814,0-1.857,0.55-2.317,1.223
		l-27.237,39.904c-0.461,0.674-0.985,0.573-1.166-0.219l-2.004-8.792c-0.181-0.795-0.997-1.443-1.81-1.443h-17.511
		c-0.815,0-1.298,0.639-1.075,1.422l7.847,27.487c0.224,0.783,0.239,2.07,0.038,2.858l-3.42,13.304
		c-0.203,0.789,0.299,1.436,1.112,1.436h17.307c0.814,0,1.646-0.646,1.849-1.436l3.42-13.304c0.202-0.788,0.769-1.967,1.259-2.618
		l44.221-58.689c0.49-0.65,0.225-1.18-0.589-1.173L506.317,11.221L506.317,11.221z"/>
	<path fill="#131B28" d="M367.202,45.646l-0.001-0.017c-0.103,0.884-0.918,1.532-1.73,1.532h-22.2c-0.768,0-1.158-0.522-1.045-1.166
		c0.007-0.019,0.01-0.035,0.021-0.051c0,0-0.008,0.002-0.014,0.006c0.004-0.025,0.004-0.048,0.012-0.075
		c0,0,0.042-0.156,0.102-0.377c2.121-5.637,6.439-9.337,14.557-9.337C366.04,36.162,367.823,40.626,367.202,45.646L367.202,45.646z
		 M360.69,20.021c-28.496,0-35.249,17.297-39.037,34.754c-3.788,17.793-3.461,34.43,26.025,34.43h1.047
		c0.093-0.002,0.188-0.002,0.281-0.002h0.825h0.304h0.773c0.115-0.002,0.229-0.002,0.346-0.002c0.294,0,0.591-0.002,0.889-0.002
		h0.208c1.167-0.002,2.352-0.008,3.538-0.011h0.06c7.788-0.031,15.598-0.09,18.762-0.115c0.809-0.012,1.601-0.665,1.768-1.455
		l1.193-5.835l0.231-1.136l1.425-6.958c0.163-0.799-0.369-1.451-1.185-1.451h-26.51c-10.543,0-13.675-2.802-12.521-11.039h42.378
		l-0.004,0.005c0.01,0,0.02-0.005,0.028-0.005c0.675-0.012,1.297-0.476,1.544-1.093c0.047-0.119,0.087-0.243,0.103-0.371
		l-0.005,0.004c6.292-23.734,4.487-39.717-22.468-39.717L360.69,20.021z"/>
	<path fill="#131B28" d="M226.006,45.555l-0.401,1.419c0,0.005,0,0.005,0,0.005l-3.2,11.34l-3.199,11.337
		c-0.221,0.784-1.068,1.425-1.884,1.425h-16.937c-12.846,0-15.975-10.048-12.846-24.868c3.127-15.159,9.26-24.582,21.904-25.536
		C226.721,19.375,230.177,31.528,226.006,45.555L226.006,45.555z M237.62,70.21c0,0,7.985-19.389,9.799-30.588
		c2.473-14.991-5.033-36.732-34.025-36.732c-28.826,0-41.344,20.757-46.121,43.323c-4.775,22.728,1.482,42.662,30.145,42.499
		l22.611-0.084l21.134-0.077c0.814-0.007,1.646-0.652,1.854-1.438l3.681-14.042c0.205-0.788-0.292-1.437-1.106-1.441l-3.529-0.021
		l-3.527-0.021c-0.693-0.005-1.089-0.452-1.004-1.047c0.015-0.106,0.039-0.217,0.085-0.33L237.62,70.21z"/>
	<path fill="#131B28" d="M380.323,57.233c0,0.536-0.435,0.972-0.973,0.972c-0.536,0-0.972-0.436-0.972-0.972s0.436-0.97,0.972-0.97
		C379.889,56.263,380.323,56.697,380.323,57.233z"/>
	<path fill="#0868AC" d="M17.504,32.023c-7.959,11.44-6.969,26.324-0.889,38.48c0.145,0.291,0.296,0.578,0.446,0.864
		c0.095,0.182,0.185,0.368,0.285,0.547c0.056,0.108,0.118,0.213,0.177,0.315c0.104,0.194,0.21,0.378,0.317,0.567
		c0.188,0.333,0.382,0.664,0.58,0.995c0.11,0.182,0.218,0.363,0.331,0.545c0.219,0.354,0.444,0.704,0.674,1.054
		c0.095,0.149,0.188,0.299,0.286,0.443c0.317,0.473,0.642,0.944,0.976,1.407c0.008,0.013,0.018,0.026,0.028,0.037
		c0.053,0.075,0.111,0.147,0.165,0.222c0.289,0.399,0.587,0.793,0.889,1.183c0.111,0.142,0.223,0.284,0.335,0.428
		c0.27,0.337,0.543,0.673,0.821,1.009c0.104,0.125,0.209,0.252,0.314,0.375c0.374,0.439,0.755,0.878,1.144,1.308
		c0.008,0.007,0.017,0.017,0.023,0.023c0.017,0.019,0.031,0.03,0.045,0.049c0.379,0.415,0.769,0.82,1.163,1.227
		c0.123,0.126,0.247,0.252,0.373,0.376c0.306,0.308,0.616,0.609,0.929,0.911c0.127,0.121,0.253,0.245,0.38,0.36
		c0.418,0.395,0.841,0.781,1.273,1.159c0.007,0.007,0.013,0.013,0.02,0.016c0.074,0.065,0.149,0.127,0.222,0.189
		c0.38,0.329,0.767,0.656,1.157,0.977c0.158,0.129,0.319,0.255,0.478,0.383c0.319,0.254,0.641,0.506,0.964,0.753
		c0.172,0.131,0.343,0.262,0.516,0.392c0.357,0.264,0.718,0.522,1.082,0.776c0.132,0.096,0.261,0.189,0.394,0.279
		c0.037,0.026,0.071,0.053,0.108,0.077c0.345,0.238,0.699,0.467,1.051,0.695c0.151,0.101,0.301,0.205,0.454,0.303
		c0.541,0.343,1.09,0.681,1.645,1.008c0.15,0.086,0.303,0.17,0.454,0.256c0.408,0.235,0.819,0.467,1.235,0.692
		c0.225,0.121,0.456,0.235,0.683,0.353c0.293,0.153,0.585,0.31,0.884,0.459c0.067,0.033,0.137,0.064,0.204,0.099
		c0.12,0.058,0.241,0.113,0.361,0.174c0.462,0.222,0.929,0.438,1.4,0.648c0.1,0.045,0.197,0.089,0.296,0.133
		c0.54,0.235,1.083,0.462,1.633,0.679c0.132,0.054,0.265,0.104,0.398,0.156c0.508,0.196,1.023,0.389,1.541,0.571
		c0.065,0.023,0.129,0.045,0.194,0.066c0.567,0.199,1.14,0.383,1.718,0.563c0.138,0.04,0.276,0.084,0.415,0.124
		c0.587,0.178,1.168,0.389,1.774,0.501c38.493,7.02,49.674-23.132,49.674-23.132C90.134,86.332,73.464,89.56,57.67,85.966
		c-0.598-0.135-1.179-0.321-1.762-0.494c-0.148-0.044-0.294-0.088-0.439-0.133c-0.57-0.175-1.136-0.358-1.697-0.553
		c-0.078-0.027-0.155-0.056-0.233-0.084c-0.504-0.177-1.002-0.363-1.497-0.555c-0.14-0.056-0.28-0.109-0.419-0.165
		c-0.544-0.214-1.083-0.438-1.616-0.671c-0.109-0.047-0.214-0.097-0.323-0.143c-0.458-0.208-0.911-0.417-1.362-0.635
		c-0.131-0.063-0.261-0.124-0.395-0.189c-0.354-0.172-0.704-0.355-1.054-0.536c-0.234-0.123-0.472-0.239-0.704-0.368
		c-0.427-0.229-0.846-0.466-1.264-0.709c-0.141-0.079-0.285-0.155-0.426-0.237c-0.555-0.327-1.103-0.665-1.646-1.008
		c-0.149-0.096-0.295-0.198-0.444-0.295c-0.394-0.255-0.785-0.513-1.17-0.78c-0.127-0.085-0.251-0.179-0.377-0.265
		c-0.372-0.263-0.741-0.529-1.107-0.8c-0.166-0.123-0.329-0.248-0.491-0.371c-0.334-0.257-0.668-0.515-0.999-0.78
		c-0.149-0.119-0.298-0.238-0.445-0.357c-0.42-0.346-0.835-0.692-1.244-1.049c-0.043-0.037-0.09-0.074-0.136-0.114
		c-0.443-0.389-0.878-0.788-1.308-1.189c-0.125-0.119-0.247-0.234-0.369-0.354c-0.318-0.304-0.631-0.608-0.939-0.922
		c-0.124-0.123-0.247-0.244-0.369-0.367c-0.392-0.401-0.776-0.808-1.153-1.22c-0.019-0.021-0.038-0.039-0.057-0.061
		c-0.398-0.436-0.788-0.882-1.169-1.331c-0.104-0.124-0.204-0.242-0.306-0.363c-0.284-0.344-0.567-0.69-0.842-1.041
		c-0.104-0.125-0.206-0.255-0.309-0.384c-0.331-0.43-0.654-0.858-0.972-1.295c-8.769-11.96-11.919-28.457-4.911-42.004"/>
	<path fill="#0868AC" d="M42.211,22.386c-5.755,8.283-5.443,19.372-0.953,28.132c0.753,1.469,1.6,2.893,2.546,4.25
		c0.863,1.236,1.819,2.707,2.963,3.7c0.415,0.457,0.849,0.902,1.292,1.341c0.112,0.114,0.227,0.224,0.34,0.335
		c0.43,0.417,0.867,0.828,1.32,1.227c0.019,0.014,0.035,0.033,0.054,0.046c0.004,0.005,0.009,0.007,0.012,0.012
		c0.5,0.438,1.017,0.86,1.542,1.275c0.117,0.088,0.232,0.182,0.35,0.273c0.526,0.403,1.062,0.799,1.611,1.177
		c0.017,0.012,0.031,0.023,0.047,0.035c0.243,0.168,0.49,0.324,0.735,0.485c0.118,0.077,0.23,0.159,0.349,0.23
		c0.393,0.252,0.791,0.497,1.195,0.731c0.058,0.036,0.114,0.066,0.17,0.099c0.348,0.2,0.701,0.398,1.056,0.591
		c0.124,0.068,0.25,0.13,0.375,0.195c0.245,0.128,0.49,0.258,0.739,0.383c0.037,0.018,0.076,0.033,0.112,0.05
		c0.507,0.25,1.019,0.491,1.542,0.718c0.111,0.05,0.227,0.094,0.34,0.141c0.417,0.177,0.839,0.351,1.263,0.513
		c0.18,0.068,0.362,0.133,0.541,0.198c0.385,0.143,0.771,0.273,1.16,0.404c0.176,0.056,0.349,0.113,0.525,0.168
		c0.553,0.171,1.101,0.389,1.677,0.484c29.72,4.924,36.582-17.959,36.582-17.959c-6.186,8.908-18.163,13.158-30.945,9.841
		c-0.568-0.149-1.127-0.313-1.683-0.487c-0.17-0.051-0.337-0.107-0.505-0.163c-0.396-0.128-0.788-0.264-1.178-0.406
		c-0.178-0.065-0.356-0.13-0.531-0.198c-0.426-0.163-0.849-0.333-1.268-0.51c-0.114-0.049-0.229-0.093-0.341-0.145
		c-0.524-0.229-1.041-0.469-1.55-0.721c-0.263-0.128-0.521-0.263-0.778-0.396c-0.149-0.077-0.299-0.154-0.448-0.23
		c-0.331-0.18-0.661-0.366-0.984-0.555c-0.078-0.044-0.158-0.086-0.236-0.133c-0.402-0.235-0.798-0.478-1.191-0.727
		c-0.122-0.077-0.238-0.161-0.359-0.24c-0.259-0.168-0.518-0.338-0.772-0.511c-0.547-0.377-1.081-0.774-1.606-1.175
		c-0.121-0.096-0.242-0.189-0.362-0.285c-5.594-4.417-10.03-10.454-12.138-17.299c-2.209-7.099-1.732-15.068,2.096-21.535"/>
	<path fill="#0868AC" d="M62.991,15.185c-3.393,4.994-3.727,11.196-1.372,16.711c2.483,5.854,7.572,10.447,13.51,12.624
		c0.244,0.091,0.489,0.173,0.737,0.257c0.108,0.032,0.216,0.07,0.326,0.103c0.35,0.109,0.697,0.238,1.059,0.305
		c16.41,3.171,20.861-8.421,22.046-10.127c-3.899,5.614-10.452,6.961-18.492,5.01c-0.635-0.154-1.333-0.384-1.945-0.601
		c-0.785-0.28-1.558-0.599-2.31-0.959c-1.428-0.686-2.788-1.519-4.05-2.472c-7.194-5.458-11.664-15.872-6.969-24.353"/>
	<path fill="#0868AC" d="M247.817,112.45l-4.731,10.772h-5.222l0.428-9.788l-3.845,9.788h-5.057l-0.133-10.772l0.559-2.661h3.581
		l-0.69,10.642l3.976-10.642h4.992l-0.361,10.773l3.942-10.773h3.12L247.817,112.45L247.817,112.45z"/>
	<path fill="#0868AC" d="M256.058,115.639c0.46-2.104,0.328-2.497-0.755-2.497h-1.643l-1.051,4.929l-1.61,5.154h-3.054l2.496-11.691
		l0.363-1.71h2.791l0.362,0.788c0,0,1.61-0.95,3.185-0.95c3.352,0,3.089,2.527,2.365,5.978H256.058L256.058,115.639z"/>
	<path fill="#0868AC" d="M265.98,108.113c-1.345,0-2.2-0.394-1.872-2.035c0.361-1.643,1.413-2.037,2.726-2.037
		c1.315,0,2.201,0.395,1.841,2.037C268.345,107.688,267.294,108.113,265.98,108.113L265.98,108.113z M264.535,123.225h-3.024
		l0.592-5.256l1.051-4.86l-2.101-0.462l0.59-2.856h5.748L264.535,123.225L264.535,123.225z"/>
	<path fill="#0868AC" d="M277.639,112.64l-3.776,0.463l-1.086,5.123c-0.295,1.414-0.295,1.808,0.954,1.808h2.528l-0.526,2.693
		c0,0-2.296,0.69-3.284,0.69c-3.875,0-3.843-2.136-3.151-5.323l1.051-5.024l-2.104-0.459l0.624-2.858h2.202l1.248-3.386h2.989
		l-0.724,3.386h3.679L277.639,112.64L277.639,112.64z"/>
	<path fill="#0868AC" d="M285.489,112.812c-1.773,0-2.693,0.922-3.055,2.563l5.059-0.427
		C287.722,113.831,287.492,112.812,285.489,112.812L285.489,112.812z M281.943,117.804c-0.232,1.644,0.393,2.2,2.495,2.2h5.287
		l-0.525,2.497c0,0-3.186,0.886-5.55,0.886c-5.88,0-5.946-3.314-5.19-6.863c0.756-3.482,2.103-6.929,7.783-6.929
		c5.487,0,5.75,3.315,4.403,8.209H281.943L281.943,117.804z"/>
	<path fill="#0868AC" d="M302.697,123.221h-3.021l0.592-5.254l2.135-9.986l-2.104-0.492l0.625-2.859h5.749L302.697,123.221
		L302.697,123.221z"/>
	<path fill="#0868AC" d="M313.612,112.812c-1.775,0-2.694,0.922-3.057,2.563l5.06-0.427
		C315.843,113.831,315.615,112.812,313.612,112.812L313.612,112.812z M310.063,117.804c-0.229,1.644,0.396,2.2,2.496,2.2h5.289
		l-0.525,2.497c0,0-3.188,0.886-5.553,0.886c-5.88,0-5.944-3.314-5.188-6.863c0.757-3.482,2.103-6.929,7.784-6.929
		c5.485,0,5.749,3.315,4.403,8.209H310.063L310.063,117.804z"/>
	<path fill="#0868AC" d="M332.624,112.974c0,0-3.843,0.034-4.894,0.034c-2.234,0-2.464,0.688-2.628,1.409l-0.133,0.659l7.096,0.525
		c0,0,0.032,2.267-0.263,3.547c-0.428,2.136-2.628,4.302-6.602,4.302c-1.973,0-5.158-0.754-5.158-0.754l0.558-2.594h4.896
		c2.168,0,2.464-0.594,2.597-1.183l0.163-0.854l-6.963-0.526c0,0-0.264-1.742,0.098-3.48c0.526-2.367,2.692-4.402,6.668-4.402
		c1.97,0,5.156,0.721,5.156,0.721L332.624,112.974L332.624,112.974z"/>
	<path fill="#0868AC" d="M345.831,112.974c0,0-3.843,0.034-4.895,0.034c-2.233,0-2.463,0.688-2.627,1.409l-0.133,0.659l7.097,0.525
		c0,0,0.032,2.267-0.264,3.547c-0.427,2.136-2.628,4.302-6.602,4.302c-1.971,0-5.157-0.754-5.157-0.754l0.559-2.594h4.894
		c2.168,0,2.463-0.594,2.597-1.183l0.163-0.854l-6.964-0.526c0,0-0.263-1.742,0.098-3.48c0.526-2.367,2.693-4.402,6.669-4.402
		c1.97,0,5.155,0.721,5.155,0.721L345.831,112.974L345.831,112.974z"/>
	<path fill="#0868AC" d="M349.966,125.36h-2.626l0.098-1.973c-0.954-0.063-1.445-0.753-1.216-1.905
		c0.36-1.642,1.38-2.035,2.727-2.035c1.313,0,2.198,0.394,1.839,2.035L349.966,125.36L349.966,125.36z"/>
	<path fill="#0868AC" d="M367.536,113.108c-1.97,0-2.659,1.183-3.119,3.35c-0.46,2.169-0.329,3.448,1.642,3.448h2.727l1.512-6.798
		H367.536z M372.037,121.482l-0.362,1.742l-2.757-0.034l-0.396-0.852c0,0-2.432,1.048-4.071,1.048c-4.206,0-4.403-3.447-3.648-6.929
		c0.756-3.548,2.398-6.898,6.57-6.898c1.513,0,3.547,0.756,3.547,0.756l1.675-5.683h3.023L372.037,121.482L372.037,121.482z"/>
	<path fill="#0868AC" d="M382.911,112.974c-2.561,0-3.385,1.443-3.843,3.548c-0.428,2.135-0.229,3.581,2.299,3.581
		c2.628,0,3.417-1.414,3.875-3.581C385.704,114.482,385.571,112.974,382.911,112.974L382.911,112.974z M380.679,123.42
		c-5.42,0-5.849-3.383-5.126-6.898c0.757-3.514,2.662-6.864,8.082-6.864c5.386,0,5.88,3.351,5.122,6.864
		C388.003,120.103,386.097,123.42,380.679,123.42z"/>
	<path fill="#0868AC" d="M411.425,123.221l0.592-5.189l0.296-1.479c0.427-1.97,0.69-3.415-1.38-3.415h-1.608
		c0.065,1.019-0.133,2.168-0.395,3.384l-1.412,6.699h-3.056l0.592-5.189l0.295-1.479c0.428-1.97,0.688-3.415-1.378-3.415h-1.314
		l-2.168,10.083h-3.517l2.858-13.433h2.759l0.427,0.82c0,0,1.874-0.986,3.385-0.986c1.148,0,2.003,0.527,2.3,1.183
		c0.656-0.361,2.528-1.183,3.876-1.183c4.201,0,4.072,3.415,3.315,6.899l-1.412,6.699H411.425L411.425,123.221z"/>
	<path fill="#0868AC" d="M425.386,112.974c-2.563,0-3.384,1.443-3.843,3.548c-0.427,2.135-0.229,3.581,2.299,3.581
		c2.627,0,3.418-1.414,3.877-3.581C428.178,114.482,428.047,112.974,425.386,112.974z M423.153,123.42
		c-5.422,0-5.847-3.383-5.124-6.898c0.755-3.514,2.66-6.864,8.08-6.864c5.389,0,5.88,3.351,5.124,6.864
		C430.478,120.103,428.572,123.42,423.153,123.42z"/>
	<path fill="#0868AC" d="M440.36,115.639c0.46-2.104,0.329-2.497-0.754-2.497h-1.644l-1.052,4.929l-1.61,5.154h-3.054l2.496-11.691
		l0.362-1.71h2.792l0.359,0.788c0,0,1.611-0.95,3.188-0.95c3.349,0,3.086,2.527,2.363,5.978H440.36L440.36,115.639z"/>
	<path fill="#0868AC" d="M452.124,112.812c-1.771,0-2.692,0.922-3.053,2.563l5.056-0.427
		C454.359,113.831,454.127,112.812,452.124,112.812L452.124,112.812z M448.577,117.804c-0.229,1.644,0.395,2.2,2.496,2.2h5.288
		l-0.524,2.497c0,0-3.187,0.886-5.551,0.886c-5.88,0-5.945-3.314-5.192-6.863c0.757-3.482,2.104-6.929,7.786-6.929
		c5.484,0,5.749,3.315,4.401,8.209H448.577L448.577,117.804z"/>
	<path fill="#0868AC" d="M460.232,123.422c-1.38,0-2.232-0.395-1.87-2.003c0.326-1.646,1.345-2.038,2.726-2.038
		c1.28,0,2.166,0.392,1.84,2.038C462.564,122.995,461.514,123.422,460.232,123.422z"/>
</g>
</svg>
