<?xml version="1.0" encoding="utf-8"?>
<!-- Generator: Adobe Illustrator 16.0.0, SVG Export Plug-In . SVG Version: 6.00 Build 0)  -->
<!DOCTYPE svg PUBLIC "-//W3C//DTD SVG 1.1//EN" "http://www.w3.org/Graphics/SVG/1.1/DTD/svg11.dtd">
<svg version="1.1" id="Layer_1" xmlns="http://www.w3.org/2000/svg" xmlns:xlink="http://www.w3.org/1999/xlink" x="0px" y="0px"
	 width="318.25px" height="318.438px" viewBox="57.695 80.328 318.25 318.438"
	 enable-background="new 57.695 80.328 318.25 318.438" xml:space="preserve">
<title>HTML5 Logo</title>
<g>
	<path d="M-95.658-510.375h22.461v22.266h20.703v-22.266h22.461v67.383h-22.461v-22.46h-20.508v22.46h-22.656 M-0.346-487.914
		H-20.17v-22.461h62.207v22.461H22.115v44.922H-0.346 M51.9-510.375h23.534l14.454,23.731l14.453-23.731h23.535v67.383h-22.46
		v-33.398l-15.723,24.22l-15.722-24.22v33.398H51.9 M139.009-510.375h22.461v45.117h31.835v22.266h-54.297"/>
	<polygon fill="#E44D26" points="-14.213,-293.87 -10.112,-248.461 48.287,-248.461 48.482,-248.461 48.482,-293.87 48.287,-293.87 
			"/>
	<path fill="#E44D26" d="M-128.666-412.132L-96.44-50.415l144.629,40.04L193.404-50.61l32.227-361.522H-128.666z M165.669-73.853
		L48.482-41.137v-45.801l-91.016-25.392l-6.25-69.629h44.531l3.124,35.45l49.513,13.255l0.098-0.024v-70.848h-0.195v-0.099h-99.023
		l-12.109-133.983H48.287h0.195v-44.237h144.824L165.669-73.853z"/>
	<polygon fill="#F16529" points="102.974,-204.125 48.482,-204.125 48.482,-133.278 97.799,-146.508 	"/>
	<polygon fill="#F16529" points="48.482,-338.207 159.42,-338.207 155.318,-293.87 48.482,-293.87 48.482,-248.461 
		151.315,-248.461 139.107,-112.329 48.482,-87.188 48.482,-86.938 48.482,-41.137 165.669,-73.853 193.306,-382.445 
		48.482,-382.445 	"/>
	<polygon fill="#FFFFFF" points="48.482,-133.278 48.385,-133.253 48.482,-133.227 	"/>
	<rect x="48.287" y="-204.224" fill="#FFFFFF" width="0.195" height="0.099"/>
</g>
<path d="M-475.784,14.605h23.318V37.72h21.493V14.605h23.318v69.954h-23.318V61.241h-21.29v23.318h-23.521 M-376.836,37.923h-20.581
	V14.605h64.58v23.318h-20.682v46.636h-23.318 M-322.596,14.605h24.432l15.006,24.636l15.004-24.636h24.434v69.954h-23.318V49.886
	l-16.322,25.143l-16.322-25.143v34.672h-22.913 M-232.164,14.605h23.318v46.838h33.05v23.115h-56.368"/>
<path fill="#E44D26" d="M-476.595,492.112l-33.456-375.516h367.813l-33.456,375.314l-150.754,41.77"/>
<path fill="#F16529" d="M-326.145,501.744V147.416h150.349l-28.691,320.365"/>
<path fill="#EBEBEB" d="M-441.72,193.341h115.575v46.028h-65.087l4.258,47.143h60.829v45.925h-103.003 M-427.121,355.552h46.23
	l3.243,36.802l51.502,13.788v48.055l-94.487-26.359"/>
<path fill="#FFFFFF" d="M-210.975,193.341h-115.373v46.028h111.114 M-219.39,286.511h-106.958v46.026h56.773l-5.373,59.815
	l-51.4,13.788v47.852l94.285-26.156"/>
<polygon fill="#F16529" points="48.984,529.743 135.982,529.743 139.324,493.637 48.984,493.637 48.824,493.637 -41.676,493.637 
	-31.814,602.745 48.824,602.745 48.824,602.825 93.358,602.825 89.143,649.745 48.904,660.538 8.584,649.745 6.04,620.878 
	-30.224,620.878 -25.135,677.577 48.984,698.255 48.984,698.052 122.782,677.577 132.722,566.721 48.984,566.721 48.824,566.721 
	1.267,566.721 -2.073,529.743 48.824,529.743 "/>
<path fill="none" stroke="#F16529" stroke-width="18.4336" stroke-miterlimit="10" d="M198.824,722.51
	c0,12.943-9.372,23.436-20.933,23.436H-80.243c-11.561,0-20.933-10.492-20.933-23.436V469.384c0-12.943,9.372-23.438,20.933-23.438
	h258.135c11.561,0,20.933,10.494,20.933,23.438V722.51z"/>
<path fill="none" stroke="#2965F1" stroke-width="18.4336" stroke-miterlimit="10" d="M553.671,722.51
	c0,12.943-9.372,23.436-20.933,23.436H274.603c-11.561,0-20.933-10.492-20.933-23.436V469.385c0-12.944,9.372-23.438,20.933-23.438
	h258.135c11.561,0,20.933,10.493,20.933,23.438V722.51z"/>
<polygon fill="#2965F1" points="403.685,493.074 403.559,493.074 312.591,493.074 315.893,529.402 403.559,529.402 403.685,529.402 
	454.75,529.402 451.445,566.603 403.685,566.603 403.559,566.603 319.134,566.603 322.389,602.931 403.559,602.931 403.685,602.931 
	448.294,602.931 444.077,650.047 403.559,660.982 403.559,660.985 403.526,660.994 363.067,650.07 360.48,621.096 340.821,621.096 
	324.012,621.096 329.102,678.136 403.518,698.795 403.685,698.749 403.685,698.742 478.035,678.136 478.582,671.999 
	487.118,576.358 488.005,566.603 494.563,493.074 "/>
<polygon id="polygon2989_1_" fill="#264DE4" points="-210.975,648.442 -237.411,944.6 -356.246,977.546 -474.753,944.647 
	-501.162,648.442 "/>
<polygon id="polygon2991_1_" fill="#2965F1" points="-260.044,925.742 -237.452,672.661 -356.069,672.661 -356.069,952.364 "/>
<polygon id="polygon2993_1_" fill="#EBEBEB" points="-440.62,782.519 -437.365,818.847 -356.069,818.847 -356.069,782.519 "/>
<polygon id="polygon2995_1_" fill="#EBEBEB" points="-356.069,708.99 -356.195,708.99 -447.163,708.99 -443.861,745.318 
	-356.069,745.318 "/>
<polygon id="polygon2997_1_" fill="#EBEBEB" points="-356.069,914.665 -356.069,876.868 -356.228,876.91 -396.687,865.986 
	-399.274,837.012 -418.933,837.012 -435.741,837.012 -430.652,894.052 -356.236,914.711 "/>
<path id="path2999_1_" inkscape:connector-curvature="0" d="M-432.868,567.946h44v18.399h-25.6v18.4h25.6v18.4h-44V567.946z"/>
<path id="path3001_1_" inkscape:connector-curvature="0" d="M-380.069,567.946h44v16h-25.6v3.2h25.6v36.8h-44v-16.8h25.601v-3.2
	h-25.601V567.946z"/>
<path id="path3003_1_" inkscape:connector-curvature="0" d="M-327.269,567.946h44v16h-25.6v3.2h25.6v36.8h-44v-16.8h25.601v-3.2
	h-25.601V567.946z"/>
<polygon id="polygon3005_1_" fill="#FFFFFF" points="-311.46,818.847 -315.677,865.963 -356.195,876.898 -356.195,914.693 
	-281.719,894.052 -281.172,887.915 -272.636,792.274 -271.749,782.519 -265.191,708.99 -356.195,708.99 -356.195,745.318 
	-305.004,745.318 -308.309,782.519 -356.195,782.519 -356.195,818.847 "/>
<path fill="none" stroke="#F7DF1E" stroke-width="18.4336" stroke-miterlimit="10" d="M207.695,1078.928
	c0,12.943-9.372,23.436-20.933,23.436H-71.372c-11.561,0-20.933-10.492-20.933-23.436V825.802c0-12.943,9.372-23.438,20.933-23.438
	h258.135c11.561,0,20.933,10.494,20.933,23.438V1078.928z"/>
<path fill="#F7DF1E" d="M85.507,985.409c7.121,11.629,16.387,20.175,32.774,20.175c13.766,0,22.56-6.879,22.56-16.386
	c0-11.393-9.036-15.428-24.188-22.055l-8.306-3.564c-23.974-10.213-39.9-23.008-39.9-50.058c0-24.917,18.985-43.886,48.655-43.886
	c21.123,0,36.309,7.352,47.252,26.6l-25.871,16.612c-5.696-10.214-11.841-14.237-21.381-14.237c-9.732,0-15.899,6.174-15.899,14.237
	c0,9.967,6.173,14.002,20.427,20.175l8.306,3.558c28.228,12.105,44.166,24.446,44.166,52.191c0,29.911-23.498,46.298-55.052,46.298
	c-30.855,0-50.789-14.702-60.542-33.974L85.507,985.409z M-31.855,988.288c5.219,9.261,9.967,17.089,21.381,17.089
	c10.915,0,17.801-4.271,17.801-20.876V871.532H40.55V984.95c0,34.4-20.169,50.058-49.609,50.058
	c-26.6,0-42.004-13.767-49.839-30.347L-31.855,988.288z"/>
<g>
	<rect x="834.664" y="67.946" fill="#F7DF1E" width="500" height="500"/>
	<path d="M1170.537,458.573c10.071,16.444,23.175,28.531,46.35,28.531c19.468,0,31.904-9.729,31.904-23.175
		c0-16.11-12.778-21.816-34.206-31.189l-11.746-5.04c-33.905-14.444-56.429-32.539-56.429-70.793
		c0-35.238,26.85-62.064,68.81-62.064c29.873,0,51.349,10.396,66.825,37.619l-36.588,23.492
		c-8.056-14.444-16.746-20.135-30.237-20.135c-13.763,0-22.484,8.73-22.484,20.135c0,14.096,8.73,19.802,28.889,28.532l11.746,5.031
		c39.921,17.119,62.46,34.571,62.46,73.81c0,42.301-33.23,65.476-77.856,65.476c-43.636,0-71.826-20.793-85.619-48.047
		L1170.537,458.573z M1004.56,462.644c7.381,13.096,14.096,24.166,30.238,24.166c15.437,0,25.175-6.039,25.175-29.522V297.525
		h46.983v160.397c0,48.65-28.523,70.793-70.158,70.793c-37.619,0-59.404-19.469-70.484-42.916L1004.56,462.644z"/>
</g>
<path fill="#131B28" d="M883.504-89.187l0.002-0.005l-3.201,11.345L883.504-89.187L883.504-89.187z"/>
<path fill="#131B28" d="M899.968-64.559l-3.526-0.021L899.968-64.559z"/>
<path fill="#131B28" d="M899.06-47.617h0.004L877.93-47.54L899.06-47.617L899.06-47.617z"/>
<path fill="#131B28" d="M903.492-64.537l-3.529-0.021L903.492-64.537z"/>
<path fill="#131B28" d="M900.914-49.057l3.68-14.039l-3.68,14.041V-49.057L900.914-49.057z"/>
<path fill="#131B28" d="M978.72-113.711l-6.856,32.239L978.72-113.711z"/>
<path fill="#131B28" d="M961.093-113.711l-5.205,24.083l5.205-24.085V-113.711z"/>
<path fill="#131B28" d="M977.547-115.161h-14.664c-0.813,0-1.621,0.653-1.795,1.448l-5.206,24.085l-5.206,24.086
	c-0.173,0.794-0.979,1.445-1.793,1.445h-8.897h-1.481c-10.269,0-9.081-7.103-6.979-16.833c0.021-0.098,0.042-0.194,0.063-0.294
	l0.23-1.226c0.014-0.08,0.031-0.159,0.044-0.231l0.468-2.497l0.503-2.676c0.152-0.807,0.384-1.986,0.536-2.728l2.366-11.563
	l2.368-11.563c0.163-0.797-0.37-1.453-1.185-1.453h-15.051c-0.813,0-1.619,0.655-1.786,1.45l-3.235,15.354l-3.236,15.353
	c-0.003,0.006-0.004,0.017-0.005,0.023l-0.302,1.427c-3.727,17.019-2.738,33.248,17.521,33.756c0.331,0.01,0.588,0.012,0.588,0.012
	h31.801c0.813,0,1.619-0.653,1.789-1.449l6.858-32.236l6.856-32.238C978.888-114.508,978.36-115.16,977.547-115.161L977.547-115.161
	z"/>
<path fill="#131B28" d="M1036.046-63.929c0.815,0,1.348,0.652,1.185,1.45l-1.424,6.959"/>
<path fill="#131B28" d="M1034.385-48.557l1.424-6.965l-1.425,6.967C1034.384-48.557,1034.385-48.557,1034.385-48.557
	L1034.385-48.557z"/>
<path fill="#131B28" d="M1032.598-47.092c0.003,0,0.006-0.002,0.007-0.002c-4.315,0.035-17.283,0.134-27.03,0.134
	C1017.436-46.96,1032.597-47.091,1032.598-47.092L1032.598-47.092z"/>
<path fill="#131B28" d="M996.826-72.893c-0.011-0.762,0.856-2.075,1.672-2.075l-1.832-0.03
	C995.841-66.698,996.826-72.893,996.826-72.893L996.826-72.893z"/>
<path fill="#131B28" d="M1006.911-46.964c-0.093,0-0.189,0-0.282,0.002C1006.721-46.964,1006.818-46.964,1006.911-46.964z"/>
<path fill="#131B28" d="M1036.046-63.929c0.815,0,1.348,0.652,1.185,1.45l-1.424,6.959l-0.232,1.136"/>
<path fill="#131B28" d="M1013.853-46.98h-0.059H1013.853z"/>
<path fill="#131B28" d="M1010.254-46.969h-0.209H1010.254z"/>
<path fill="#131B28" d="M1009.155-46.966c-0.117,0-0.23,0-0.346,0.002C1008.925-46.966,1009.038-46.966,1009.155-46.966z"/>
<path fill="#131B28" d="M1008.038-46.964h-0.304H1008.038z"/>
<path fill="#131B28" d="M1010.044-46.969c-0.298,0-0.595,0.002-0.889,0.002C1009.449-46.967,1009.746-46.969,1010.044-46.969z"/>
<path fill="#131B28" d="M1013.796-46.98c-1.187,0.004-2.371,0.009-3.538,0.012C1011.425-46.97,1012.611-46.976,1013.796-46.98z"/>
<path fill="#131B28" d="M1032.608-47.095L1032.608-47.095c-3.162,0.026-10.972,0.084-18.76,0.114
	C1021.634-47.009,1029.444-47.069,1032.608-47.095z"/>
<path fill="#131B28" d="M1034.385-48.553l1.192-5.832l-1.193,5.836C1034.384-48.551,1034.385-48.551,1034.385-48.553
	L1034.385-48.553z"/>
<path fill="#131B28" d="M1008.811-46.964h-0.773H1008.811z"/>
<path fill="#131B28" d="M1006.625-46.962h-1.047H1006.625z"/>
<path fill="#131B28" d="M1007.731-46.964h-0.825H1007.731z"/>
<path fill="#131B28" d="M793.224-72.719l2.279-10.097l-2.605,11.541l-2.499,11.759l2.19-10.308
	C792.759-70.621,793.046-71.924,793.224-72.719L793.224-72.719z"/>
<path fill="#131B28" d="M820.489-115.331h-16.104c-0.814,0-1.627,0.65-1.809,1.443l-1.527,6.74l-1.527,6.742
	c-0.18,0.792,0.34,1.443,1.154,1.443h16.229c0.814,0,1.623-0.65,1.798-1.445l1.476-6.74l1.477-6.735v-0.002
	C821.827-114.68,821.304-115.331,820.489-115.331L820.489-115.331z"/>
<path fill="#131B28" d="M816.984-92.91v-0.002l-4.725,21.851L816.984-92.91z"/>
<path fill="#131B28" d="M770.202-20.509c0,0,8.118,0.104,13.278,0.104c-3.92,0-10.395-0.07-13.285-0.105
	C770.198-20.511,770.2-20.509,770.202-20.509L770.202-20.509z"/>
<path fill="#131B28" d="M797.781-92.913L795.5-82.816L797.781-92.913z"/>
<path fill="#131B28" d="M815.818-94.359h-16.23c-0.813,0-1.627,0.651-1.807,1.446l-2.279,10.098l-2.279,10.097
	c-0.179,0.795-0.466,2.099-0.635,2.895l-2.19,10.308l-2.188,10.306c-0.171,0.797-0.521,2.08-0.781,2.853c0,0-3.032,9.022-8.129,8.92
	c-0.218-0.005-0.429-0.007-0.638-0.013c-2.47-0.047-4.411-0.081-4.411-0.081h-0.004c-0.812-0.012-1.629,0.622-1.818,1.413
	l-1.684,7.076l-1.682,7.072c-0.188,0.791,0.322,1.443,1.131,1.458c2.891,0.034,9.365,0.106,13.285,0.106
	c12.733,0,19.445-7.055,23.749-27.355l5.036-23.301l4.723-21.851C817.157-93.707,816.633-94.358,815.818-94.359L815.818-94.359z"/>
<path fill="#131B28" d="M1046.387-47.786c-0.813,0-1.342-0.653-1.17-1.451l12.21-57.191"/>
<path fill="#131B28" d="M1063.356-49.24l4.938-24.41L1063.356-49.24z"/>
<path fill="#131B28" d="M1045.394-48.512c-0.099-0.398-0.041-1.375,0.132-2.173l5.795-27.147l-6.104,28.594
	c-0.172,0.798,0.356,1.451,1.17,1.451h1.483C1047.054-47.786,1045.493-48.114,1045.394-48.512L1045.394-48.512z"/>
<path fill="#131B28" d="M1062.392-48.114c-0.443,0.18-1.474,0.327-2.287,0.327h1.482c0.813,0,1.612-0.653,1.773-1.453l0.294-1.45
	C1063.493-49.893,1062.838-48.293,1062.392-48.114L1062.392-48.114z"/>
<path fill="#131B28" d="M1065.831-61.445l2.18-10.773c-0.001,0.006-0.002,0.016-0.004,0.021L1065.831-61.445L1065.831-61.445z"/>
<path fill="#131B28" d="M1114.007-102.597l0.672,2.779c0.186,0.795-0.328,1.441-1.141,1.443"/>
<path fill="#131B28" d="M1063.653-50.689l2.174-10.754L1063.653-50.689z"/>
<path fill="#131B28" d="M1113.338-105.444l0.666,2.847L1113.338-105.444z"/>
<path fill="#131B28" d="M1068.008-72.217c0.162-0.797,0.431-2.089,0.6-2.879l2.327-10.906l-2.636,12.354L1068.008-72.217
	L1068.008-72.217z"/>
<path fill="#131B28" d="M1057.627-107.365c-0.161,0.769-0.369,1.741-0.506,2.385l-5.795,27.148l6.104-28.596L1057.627-107.365
	L1057.627-107.365z"/>
<path fill="#131B28" d="M1114.675-99.819l-0.672-2.779l-0.666-2.847l-0.337-1.441c-1.318-5.123-5.188-8.078-13.592-8.078
	l-13.083-0.014l-12.047-0.014h-1.034h-12.523c-0.813,0-1.619,0.65-1.787,1.448h-0.001l-0.599,2.833l-0.708,3.346l-0.196,0.937
	l-6.105,28.596l-5.794,27.147c-0.173,0.798-0.231,1.774-0.133,2.173s1.66,0.726,2.476,0.726h12.23c0.814,0,1.845-0.147,2.288-0.327
	c0.444-0.179,1.101-1.779,1.263-2.575l2.174-10.755l2.177-10.753c0.001-0.005,0.002-0.014,0.004-0.021l0.29-1.431l2.637-12.354
	l2.329-10.911c0.172-0.792,0.975-1.44,1.786-1.443l38.484-0.019C1114.347-98.378,1114.861-99.024,1114.675-99.819L1114.675-99.819z"
	/>
<path fill="#131B28" d="M1164.217-124.946c-0.814,0.005-2.146,0.011-2.961,0.011h-12.318c-0.814,0-1.857,0.55-2.317,1.223
	l-27.237,39.904c-0.461,0.674-0.985,0.573-1.166-0.219l-2.004-8.792c-0.181-0.795-0.997-1.443-1.81-1.443h-17.511
	c-0.815,0-1.298,0.639-1.075,1.422l7.847,27.487c0.224,0.783,0.239,2.07,0.038,2.858l-3.42,13.304
	c-0.203,0.789,0.299,1.436,1.112,1.436h17.307c0.814,0,1.646-0.646,1.849-1.436l3.42-13.304c0.202-0.788,0.769-1.967,1.259-2.618
	l44.221-58.689c0.49-0.65,0.225-1.18-0.589-1.173L1164.217-124.946L1164.217-124.946z"/>
<path fill="#131B28" d="M1025.102-90.521l-0.001-0.017c-0.103,0.884-0.918,1.532-1.73,1.532h-22.2c-0.768,0-1.158-0.522-1.045-1.166
	c0.007-0.019,0.01-0.035,0.021-0.051c0,0-0.008,0.002-0.014,0.006c0.004-0.025,0.004-0.048,0.012-0.075c0,0,0.042-0.156,0.102-0.377
	c2.121-5.637,6.439-9.337,14.557-9.337C1023.94-100.006,1025.723-95.541,1025.102-90.521L1025.102-90.521z M1018.59-116.146
	c-28.496,0-35.249,17.297-39.037,34.754c-3.788,17.793-3.461,34.43,26.025,34.43h1.047c0.093-0.002,0.188-0.002,0.281-0.002h0.825
	h0.304h0.773c0.115-0.002,0.229-0.002,0.346-0.002c0.294,0,0.591-0.002,0.889-0.002h0.208c1.167-0.002,2.352-0.008,3.538-0.011h0.06
	c7.788-0.031,15.598-0.09,18.762-0.115c0.809-0.012,1.601-0.665,1.768-1.455l1.193-5.835l0.231-1.136l1.425-6.958
	c0.163-0.799-0.369-1.451-1.185-1.451h-26.51c-10.543,0-13.675-2.802-12.521-11.039h42.378l-0.004,0.005
	c0.01,0,0.02-0.005,0.028-0.005c0.675-0.012,1.297-0.476,1.544-1.093c0.047-0.119,0.087-0.243,0.103-0.371l-0.005,0.004
	c6.292-23.734,4.487-39.717-22.468-39.717L1018.59-116.146z"/>
<path fill="#131B28" d="M883.906-90.612l-0.402,1.419c0,0.005,0,0.005,0,0.005l-3.199,11.34l-3.199,11.337
	c-0.221,0.784-1.068,1.425-1.884,1.425h-16.937c-12.847,0-15.975-10.048-12.847-24.868c3.127-15.159,9.261-24.582,21.903-25.536
	C884.621-116.793,888.078-104.639,883.906-90.612L883.906-90.612z M895.52-65.957c0,0,7.985-19.389,9.8-30.588
	c2.473-14.991-5.033-36.732-34.025-36.732c-28.826,0-41.344,20.757-46.121,43.323c-4.775,22.728,1.482,42.662,30.146,42.499
	l22.611-0.084l21.134-0.077c0.814-0.007,1.646-0.652,1.854-1.438l3.682-14.042c0.205-0.788-0.293-1.437-1.106-1.441l-3.528-0.021
	l-3.527-0.021c-0.693-0.005-1.09-0.452-1.004-1.047c0.014-0.106,0.039-0.217,0.085-0.33L895.52-65.957z"/>
<path fill="#131B28" d="M1038.223-78.934c0,0.536-0.435,0.972-0.973,0.972c-0.536,0-0.972-0.436-0.972-0.972s0.436-0.97,0.972-0.97
	C1037.789-79.904,1038.223-79.47,1038.223-78.934z"/>
<path fill="none" stroke="#0868AC" stroke-width="18.4336" stroke-miterlimit="10" d="M566.914,1077.248
	c0,12.943-9.371,23.436-20.933,23.436H287.846c-11.561,0-20.933-10.492-20.933-23.436V824.121c0-12.943,9.372-23.438,20.933-23.438
	h258.135c11.562,0,20.933,10.494,20.933,23.438V1077.248z"/>
<g>
	<path fill="#0868AC" d="M322.884,895.702c-19.053,27.388-16.683,63.017-2.127,92.118c0.346,0.695,0.711,1.384,1.066,2.068
		c0.229,0.435,0.444,0.881,0.682,1.309c0.133,0.26,0.283,0.51,0.423,0.756c0.248,0.465,0.502,0.904,0.76,1.357
		c0.451,0.797,0.916,1.59,1.389,2.383c0.262,0.436,0.524,0.87,0.792,1.305c0.526,0.848,1.064,1.686,1.615,2.522
		c0.225,0.358,0.449,0.715,0.683,1.062c0.76,1.131,1.538,2.261,2.338,3.369c0.019,0.029,0.042,0.063,0.065,0.088
		c0.127,0.18,0.267,0.354,0.396,0.531c0.692,0.955,1.405,1.897,2.127,2.831c0.264,0.339,0.533,0.681,0.802,1.022
		c0.646,0.808,1.3,1.611,1.966,2.416c0.25,0.3,0.5,0.604,0.753,0.898c0.896,1.052,1.808,2.102,2.738,3.131
		c0.019,0.016,0.042,0.037,0.056,0.056c0.042,0.044,0.074,0.071,0.107,0.116c0.91,0.993,1.842,1.963,2.785,2.937
		c0.292,0.302,0.592,0.603,0.893,0.899c0.731,0.736,1.475,1.459,2.223,2.182c0.307,0.289,0.608,0.587,0.912,0.863
		c1,0.943,2.013,1.869,3.048,2.773c0.016,0.018,0.028,0.031,0.046,0.039c0.176,0.155,0.355,0.303,0.528,0.452
		c0.912,0.788,1.838,1.571,2.771,2.337c0.379,0.309,0.765,0.611,1.143,0.918c0.767,0.607,1.534,1.211,2.31,1.802
		c0.412,0.313,0.823,0.626,1.234,0.938c0.856,0.63,1.721,1.25,2.59,1.857c0.318,0.229,0.626,0.454,0.942,0.669
		c0.088,0.063,0.171,0.126,0.259,0.185c0.825,0.57,1.671,1.117,2.516,1.664c0.36,0.242,0.72,0.491,1.087,0.725
		c1.295,0.82,2.609,1.629,3.939,2.412c0.358,0.207,0.725,0.408,1.085,0.613c0.977,0.563,1.961,1.117,2.957,1.657
		c0.538,0.291,1.092,0.564,1.634,0.845c0.701,0.367,1.402,0.741,2.116,1.098c0.161,0.08,0.33,0.154,0.489,0.237
		c0.285,0.137,0.575,0.271,0.865,0.416c1.108,0.53,2.224,1.05,3.353,1.552c0.238,0.107,0.472,0.213,0.708,0.318
		c1.292,0.564,2.593,1.106,3.908,1.624c0.315,0.13,0.634,0.25,0.952,0.375c1.218,0.469,2.45,0.931,3.689,1.366
		c0.157,0.059,0.309,0.107,0.466,0.159c1.358,0.478,2.728,0.917,4.112,1.347c0.33,0.098,0.659,0.201,0.994,0.297
		c1.404,0.426,2.798,0.931,4.248,1.199c92.147,16.805,118.913-55.373,118.913-55.373c-22.479,29.287-62.383,37.012-100.192,28.41
		c-1.431-0.322-2.822-0.77-4.217-1.184c-0.355-0.104-0.706-0.211-1.052-0.317c-1.365-0.419-2.721-0.857-4.063-1.323
		c-0.187-0.064-0.372-0.134-0.559-0.201c-1.207-0.424-2.398-0.869-3.584-1.328c-0.334-0.133-0.668-0.262-1.005-0.395
		c-1.3-0.512-2.59-1.05-3.866-1.605c-0.262-0.113-0.515-0.232-0.773-0.343c-1.097-0.497-2.182-0.998-3.262-1.519
		c-0.313-0.149-0.626-0.297-0.944-0.454c-0.849-0.411-1.686-0.851-2.522-1.283c-0.561-0.294-1.129-0.573-1.686-0.882
		c-1.023-0.547-2.024-1.114-3.024-1.696c-0.337-0.19-0.683-0.372-1.02-0.567c-1.328-0.783-2.642-1.594-3.941-2.414
		c-0.355-0.229-0.706-0.475-1.062-0.705c-0.944-0.61-1.879-1.228-2.803-1.869c-0.306-0.202-0.601-0.428-0.905-0.633
		c-0.888-0.629-1.772-1.268-2.649-1.914c-0.397-0.295-0.788-0.594-1.176-0.889c-0.799-0.615-1.599-1.232-2.389-1.868
		c-0.357-0.285-0.715-0.571-1.066-0.855c-1.005-0.827-1.997-1.657-2.979-2.511c-0.103-0.09-0.215-0.178-0.325-0.273
		c-1.059-0.93-2.102-1.887-3.131-2.848c-0.298-0.285-0.591-0.561-0.883-0.846c-0.762-0.728-1.51-1.457-2.249-2.207
		c-0.295-0.295-0.589-0.585-0.882-0.879c-0.938-0.961-1.859-1.934-2.761-2.92c-0.044-0.049-0.091-0.094-0.135-0.145
		c-0.954-1.043-1.887-2.111-2.801-3.188c-0.248-0.297-0.486-0.58-0.732-0.869c-0.68-0.823-1.358-1.652-2.018-2.492
		c-0.248-0.299-0.491-0.61-0.739-0.918c-0.79-1.029-1.566-2.057-2.324-3.102c-20.993-28.631-28.535-68.121-11.756-100.553"/>
	<path fill="#0868AC" d="M382.03,872.631c-13.779,19.828-13.031,46.373-2.282,67.346c1.802,3.516,3.83,6.926,6.094,10.174
		c2.065,2.959,4.355,6.479,7.093,8.855c0.994,1.096,2.031,2.162,3.093,3.211c0.266,0.273,0.542,0.535,0.813,0.803
		c1.029,1,2.076,1.981,3.161,2.938c0.042,0.033,0.084,0.078,0.128,0.11c0.012,0.011,0.021,0.017,0.028,0.028
		c1.197,1.051,2.434,2.061,3.691,3.054c0.279,0.212,0.557,0.435,0.837,0.653c1.257,0.965,2.543,1.913,3.857,2.818
		c0.04,0.028,0.074,0.057,0.112,0.082c0.582,0.402,1.173,0.777,1.76,1.162c0.283,0.186,0.552,0.381,0.835,0.552
		c0.939,0.604,1.894,1.19,2.861,1.751c0.136,0.088,0.271,0.159,0.407,0.236c0.832,0.479,1.679,0.954,2.525,1.414
		c0.299,0.164,0.599,0.311,0.9,0.469c0.587,0.307,1.171,0.617,1.77,0.916c0.089,0.042,0.18,0.078,0.267,0.119
		c1.216,0.598,2.439,1.176,3.689,1.718c0.267,0.12,0.543,0.225,0.816,0.337c0.998,0.424,2.008,0.84,3.022,1.227
		c0.431,0.164,0.865,0.318,1.295,0.475c0.921,0.342,1.847,0.655,2.777,0.969c0.421,0.133,0.835,0.271,1.258,0.402
		c1.323,0.409,2.632,0.93,4.012,1.159c71.147,11.787,87.573-42.992,87.573-42.992c-14.809,21.325-43.479,31.499-74.077,23.559
		c-1.358-0.358-2.7-0.748-4.028-1.167c-0.406-0.123-0.809-0.258-1.211-0.391c-0.946-0.307-1.887-0.631-2.819-0.972
		c-0.425-0.155-0.853-0.312-1.271-0.474c-1.021-0.391-2.034-0.799-3.034-1.222c-0.273-0.118-0.549-0.224-0.818-0.347
		c-1.254-0.547-2.492-1.121-3.711-1.725c-0.629-0.307-1.246-0.63-1.863-0.949c-0.354-0.184-0.715-0.367-1.07-0.552
		c-0.795-0.431-1.582-0.876-2.356-1.329c-0.187-0.104-0.378-0.205-0.565-0.318c-0.963-0.563-1.91-1.145-2.85-1.74
		c-0.293-0.184-0.568-0.386-0.86-0.575c-0.62-0.401-1.239-0.81-1.85-1.222c-1.309-0.904-2.585-1.854-3.843-2.813
		c-0.29-0.229-0.58-0.453-0.865-0.682c-13.393-10.574-24.011-25.024-29.059-41.411c-5.288-16.994-4.147-36.071,5.017-51.552"/>
	<path fill="#0868AC" d="M431.775,855.392c-8.121,11.954-8.922,26.801-3.285,40.005c5.945,14.014,18.127,25.009,32.341,30.22
		c0.585,0.22,1.174,0.414,1.768,0.615c0.257,0.078,0.515,0.167,0.778,0.246c0.838,0.261,1.667,0.568,2.534,0.729
		c39.284,7.592,49.938-20.158,52.776-24.242c-9.334,13.438-25.02,16.665-44.267,11.994c-1.521-0.369-3.191-0.92-4.657-1.438
		c-1.88-0.67-3.729-1.434-5.529-2.297c-3.417-1.642-6.676-3.635-9.696-5.918c-17.22-13.066-27.92-37.995-16.683-58.297"/>
</g>
<path fill="none" stroke="#F4F4F4" stroke-width="18.4336" stroke-miterlimit="10" d="M366.82,366.111
	c0,12.943-9.371,23.436-20.933,23.436H87.753c-11.561,0-20.933-10.492-20.933-23.436V112.984c0-12.943,9.372-23.438,20.933-23.438
	h258.135c11.562,0,20.933,10.494,20.933,23.438V366.111z"/>
<g>
	<path fill="#F4F4F4" d="M122.884,184.577c-19.053,27.388-16.682,63.017-2.127,92.118c0.346,0.695,0.711,1.384,1.066,2.068
		c0.229,0.435,0.444,0.881,0.682,1.309c0.134,0.26,0.283,0.51,0.424,0.756c0.248,0.465,0.502,0.904,0.76,1.357
		c0.451,0.797,0.916,1.59,1.389,2.383c0.262,0.436,0.523,0.87,0.793,1.305c0.525,0.848,1.063,1.686,1.615,2.522
		c0.225,0.358,0.448,0.715,0.682,1.062c0.76,1.131,1.539,2.261,2.338,3.369c0.02,0.029,0.043,0.063,0.065,0.088
		c0.127,0.18,0.267,0.354,0.396,0.531c0.691,0.955,1.404,1.897,2.127,2.831c0.265,0.339,0.533,0.681,0.803,1.022
		c0.645,0.808,1.299,1.611,1.965,2.416c0.251,0.3,0.501,0.604,0.754,0.898c0.895,1.052,1.807,2.102,2.737,3.131
		c0.019,0.016,0.042,0.037,0.056,0.056c0.043,0.044,0.074,0.071,0.107,0.116c0.91,0.993,1.842,1.963,2.785,2.937
		c0.291,0.302,0.592,0.603,0.893,0.899c0.731,0.736,1.475,1.459,2.223,2.182c0.307,0.289,0.608,0.587,0.912,0.863
		c1.001,0.943,2.014,1.869,3.049,2.773c0.016,0.018,0.027,0.031,0.047,0.039c0.176,0.155,0.355,0.303,0.527,0.452
		c0.912,0.788,1.838,1.571,2.771,2.337c0.379,0.309,0.764,0.611,1.143,0.918c0.768,0.607,1.533,1.211,2.31,1.802
		c0.411,0.313,0.823,0.626,1.234,0.938c0.856,0.63,1.721,1.25,2.591,1.857c0.318,0.229,0.626,0.454,0.941,0.669
		c0.089,0.063,0.172,0.126,0.26,0.185c0.825,0.57,1.672,1.117,2.516,1.664c0.359,0.242,0.72,0.491,1.087,0.725
		c1.295,0.82,2.608,1.629,3.938,2.412c0.358,0.207,0.726,0.408,1.086,0.613c0.977,0.563,1.961,1.117,2.957,1.657
		c0.537,0.291,1.092,0.564,1.634,0.845c0.701,0.367,1.402,0.741,2.116,1.098c0.16,0.08,0.329,0.154,0.488,0.237
		c0.285,0.137,0.574,0.271,0.865,0.416c1.107,0.53,2.223,1.05,3.352,1.552c0.238,0.107,0.473,0.213,0.709,0.318
		c1.293,0.564,2.593,1.106,3.908,1.624c0.315,0.13,0.634,0.25,0.951,0.375c1.219,0.469,2.451,0.931,3.689,1.366
		c0.156,0.059,0.309,0.107,0.466,0.159c1.358,0.478,2.728,0.917,4.112,1.347c0.329,0.098,0.658,0.201,0.993,0.297
		c1.404,0.426,2.798,0.931,4.247,1.199c92.147,16.805,118.913-55.373,118.913-55.373c-22.479,29.287-62.383,37.012-100.192,28.41
		c-1.43-0.322-2.821-0.77-4.217-1.184c-0.355-0.104-0.706-0.211-1.052-0.317c-1.365-0.419-2.722-0.857-4.063-1.323
		c-0.187-0.064-0.371-0.134-0.559-0.201c-1.207-0.424-2.398-0.869-3.584-1.328c-0.334-0.133-0.668-0.262-1.006-0.395
		c-1.299-0.512-2.59-1.05-3.865-1.605c-0.263-0.113-0.516-0.232-0.773-0.343c-1.098-0.497-2.182-0.998-3.262-1.519
		c-0.314-0.149-0.627-0.297-0.945-0.454c-0.848-0.411-1.686-0.851-2.521-1.283c-0.562-0.294-1.129-0.573-1.687-0.882
		c-1.023-0.547-2.024-1.114-3.024-1.696c-0.337-0.19-0.684-0.372-1.02-0.567c-1.328-0.783-2.642-1.594-3.941-2.414
		c-0.355-0.229-0.706-0.475-1.062-0.705c-0.944-0.61-1.88-1.228-2.803-1.869c-0.306-0.202-0.601-0.428-0.905-0.633
		c-0.888-0.629-1.771-1.268-2.648-1.914c-0.396-0.295-0.787-0.594-1.176-0.889c-0.799-0.615-1.6-1.232-2.389-1.868
		c-0.357-0.285-0.716-0.571-1.066-0.855c-1.006-0.827-1.996-1.657-2.979-2.511c-0.103-0.09-0.215-0.178-0.324-0.273
		c-1.06-0.93-2.102-1.887-3.131-2.848c-0.299-0.285-0.592-0.561-0.884-0.846c-0.762-0.728-1.51-1.457-2.249-2.207
		c-0.295-0.295-0.589-0.585-0.881-0.879c-0.938-0.961-1.859-1.934-2.762-2.92c-0.044-0.049-0.09-0.094-0.135-0.145
		c-0.954-1.043-1.887-2.111-2.801-3.188c-0.248-0.297-0.486-0.58-0.732-0.869c-0.68-0.823-1.357-1.652-2.018-2.492
		c-0.247-0.299-0.49-0.61-0.738-0.918c-0.79-1.029-1.566-2.057-2.324-3.102c-20.992-28.631-28.534-68.121-11.756-100.553"/>
	<path fill="#F4F4F4" d="M182.03,161.506c-13.779,19.828-13.031,46.373-2.282,67.346c1.802,3.516,3.829,6.926,6.095,10.174
		c2.064,2.959,4.355,6.479,7.093,8.855c0.993,1.096,2.031,2.162,3.093,3.211c0.266,0.273,0.543,0.535,0.813,0.803
		c1.028,1,2.076,1.981,3.161,2.938c0.042,0.033,0.084,0.078,0.128,0.11c0.012,0.011,0.021,0.017,0.028,0.028
		c1.197,1.051,2.434,2.061,3.691,3.054c0.278,0.212,0.557,0.435,0.837,0.653c1.257,0.965,2.544,1.913,3.857,2.818
		c0.04,0.028,0.074,0.057,0.112,0.082c0.582,0.402,1.174,0.777,1.76,1.162c0.283,0.186,0.552,0.381,0.835,0.552
		c0.939,0.604,1.894,1.19,2.861,1.751c0.136,0.088,0.271,0.159,0.407,0.236c0.832,0.479,1.678,0.954,2.524,1.414
		c0.3,0.164,0.599,0.311,0.899,0.469c0.588,0.307,1.172,0.617,1.77,0.916c0.09,0.042,0.181,0.078,0.268,0.119
		c1.215,0.598,2.438,1.176,3.688,1.718c0.267,0.12,0.543,0.225,0.816,0.337c0.998,0.424,2.008,0.84,3.022,1.227
		c0.431,0.164,0.865,0.318,1.295,0.475c0.921,0.342,1.847,0.655,2.777,0.969c0.421,0.133,0.835,0.271,1.258,0.402
		c1.323,0.409,2.632,0.93,4.012,1.159c71.147,11.787,87.573-42.992,87.573-42.992c-14.809,21.325-43.479,31.499-74.077,23.559
		c-1.358-0.358-2.7-0.748-4.028-1.167c-0.406-0.123-0.809-0.258-1.211-0.391c-0.946-0.307-1.887-0.631-2.819-0.972
		c-0.425-0.155-0.853-0.312-1.271-0.474c-1.021-0.391-2.034-0.799-3.034-1.222c-0.273-0.118-0.549-0.224-0.818-0.347
		c-1.254-0.547-2.492-1.121-3.711-1.725c-0.629-0.307-1.246-0.63-1.863-0.949c-0.354-0.184-0.715-0.367-1.07-0.552
		c-0.795-0.431-1.582-0.876-2.356-1.329c-0.187-0.104-0.378-0.205-0.565-0.318c-0.963-0.563-1.91-1.145-2.85-1.74
		c-0.293-0.184-0.568-0.386-0.86-0.575c-0.62-0.401-1.239-0.81-1.85-1.222c-1.309-0.904-2.585-1.854-3.844-2.813
		c-0.289-0.229-0.579-0.453-0.864-0.682c-13.394-10.574-24.011-25.024-29.059-41.411c-5.288-16.994-4.147-36.071,5.017-51.552"/>
	<path fill="#F4F4F4" d="M231.775,144.267c-8.121,11.954-8.922,26.801-3.285,40.005c5.945,14.014,18.127,25.009,32.341,30.22
		c0.585,0.22,1.174,0.414,1.768,0.615c0.257,0.078,0.515,0.167,0.778,0.246c0.838,0.261,1.667,0.568,2.534,0.729
		c39.284,7.592,49.938-20.158,52.776-24.242c-9.334,13.438-25.02,16.665-44.267,11.994c-1.521-0.369-3.191-0.92-4.657-1.438
		c-1.88-0.67-3.729-1.434-5.529-2.297c-3.417-1.642-6.676-3.635-9.696-5.918c-17.22-13.066-27.92-37.995-16.683-58.297"/>
</g>
<path fill="#0868AC" d="M905.717-23.717l-4.73,10.772h-5.223l0.428-9.788l-3.844,9.788h-5.057l-0.134-10.772l0.559-2.661h3.581
	l-0.689,10.642l3.975-10.642h4.992l-0.361,10.773l3.942-10.773h3.12L905.717-23.717L905.717-23.717z"/>
<path fill="#0868AC" d="M913.958-20.529c0.46-2.104,0.328-2.497-0.755-2.497h-1.644l-1.051,4.929l-1.61,5.154h-3.054l2.495-11.691
	l0.363-1.71h2.791l0.361,0.788c0,0,1.61-0.95,3.186-0.95c3.352,0,3.088,2.527,2.365,5.978H913.958L913.958-20.529z"/>
<path fill="#0868AC" d="M923.88-28.054c-1.345,0-2.2-0.394-1.872-2.035c0.361-1.643,1.413-2.037,2.726-2.037
	c1.315,0,2.201,0.395,1.841,2.037C926.245-28.48,925.194-28.054,923.88-28.054L923.88-28.054z M922.435-12.943h-3.023l0.592-5.256
	l1.051-4.86l-2.102-0.462l0.591-2.856h5.748L922.435-12.943L922.435-12.943z"/>
<path fill="#0868AC" d="M935.539-23.528l-3.776,0.463l-1.086,5.123c-0.295,1.414-0.295,1.808,0.954,1.808h2.528l-0.526,2.693
	c0,0-2.296,0.69-3.284,0.69c-3.875,0-3.843-2.136-3.151-5.323l1.051-5.024l-2.104-0.459l0.624-2.858h2.202l1.248-3.386h2.989
	l-0.724,3.386h3.679L935.539-23.528L935.539-23.528z"/>
<path fill="#0868AC" d="M943.388-23.356c-1.773,0-2.693,0.922-3.055,2.563l5.059-0.427
	C945.622-22.336,945.392-23.356,943.388-23.356L943.388-23.356z M939.843-18.364c-0.232,1.644,0.393,2.2,2.495,2.2h5.287
	l-0.525,2.497c0,0-3.186,0.886-5.55,0.886c-5.88,0-5.946-3.314-5.19-6.863c0.756-3.482,2.103-6.929,7.783-6.929
	c5.487,0,5.75,3.315,4.403,8.209H939.843L939.843-18.364z"/>
<path fill="#0868AC" d="M960.596-12.947h-3.021l0.592-5.254l2.135-9.986l-2.104-0.492l0.625-2.859h5.749L960.596-12.947
	L960.596-12.947z"/>
<path fill="#0868AC" d="M971.511-23.356c-1.775,0-2.694,0.922-3.057,2.563l5.06-0.427C973.743-22.336,973.514-23.356,971.511-23.356
	L971.511-23.356z M967.963-18.364c-0.229,1.644,0.396,2.2,2.496,2.2h5.289l-0.525,2.497c0,0-3.188,0.886-5.553,0.886
	c-5.88,0-5.944-3.314-5.188-6.863c0.757-3.482,2.103-6.929,7.784-6.929c5.485,0,5.749,3.315,4.403,8.209H967.963L967.963-18.364z"/>
<path fill="#0868AC" d="M990.524-23.194c0,0-3.843,0.034-4.894,0.034c-2.234,0-2.464,0.688-2.628,1.409l-0.133,0.659l7.096,0.525
	c0,0,0.032,2.267-0.263,3.547c-0.428,2.136-2.628,4.302-6.602,4.302c-1.973,0-5.158-0.754-5.158-0.754l0.558-2.594h4.896
	c2.168,0,2.464-0.594,2.597-1.183l0.163-0.854l-6.963-0.526c0,0-0.264-1.742,0.098-3.48c0.526-2.367,2.692-4.402,6.668-4.402
	c1.97,0,5.156,0.721,5.156,0.721L990.524-23.194L990.524-23.194z"/>
<path fill="#0868AC" d="M1003.731-23.194c0,0-3.843,0.034-4.895,0.034c-2.233,0-2.463,0.688-2.627,1.409l-0.133,0.659l7.097,0.525
	c0,0,0.032,2.267-0.264,3.547c-0.427,2.136-2.628,4.302-6.602,4.302c-1.971,0-5.157-0.754-5.157-0.754l0.559-2.594h4.894
	c2.168,0,2.463-0.594,2.597-1.183l0.163-0.854l-6.964-0.526c0,0-0.263-1.742,0.098-3.48c0.526-2.367,2.693-4.402,6.669-4.402
	c1.97,0,5.155,0.721,5.155,0.721L1003.731-23.194L1003.731-23.194z"/>
<path fill="#0868AC" d="M1007.866-10.807h-2.626l0.098-1.973c-0.954-0.063-1.445-0.753-1.216-1.905
	c0.36-1.642,1.38-2.035,2.727-2.035c1.313,0,2.198,0.394,1.839,2.035L1007.866-10.807L1007.866-10.807z"/>
<path fill="#0868AC" d="M1025.436-23.059c-1.97,0-2.659,1.183-3.119,3.35c-0.46,2.169-0.329,3.448,1.642,3.448h2.727l1.512-6.798
	H1025.436z M1029.937-14.685l-0.362,1.742l-2.757-0.034l-0.396-0.852c0,0-2.432,1.048-4.071,1.048c-4.206,0-4.403-3.447-3.648-6.929
	c0.756-3.548,2.398-6.898,6.57-6.898c1.513,0,3.547,0.756,3.547,0.756l1.675-5.683h3.023L1029.937-14.685L1029.937-14.685z"/>
<path fill="#0868AC" d="M1040.811-23.194c-2.561,0-3.385,1.443-3.843,3.548c-0.428,2.135-0.229,3.581,2.299,3.581
	c2.628,0,3.417-1.414,3.875-3.581C1043.604-21.685,1043.47-23.194,1040.811-23.194L1040.811-23.194z M1038.579-12.747
	c-5.42,0-5.849-3.383-5.126-6.898c0.757-3.514,2.662-6.864,8.082-6.864c5.386,0,5.88,3.351,5.122,6.864
	C1045.903-16.065,1043.997-12.747,1038.579-12.747z"/>
<path fill="#0868AC" d="M1069.325-12.947l0.592-5.189l0.296-1.479c0.427-1.97,0.69-3.415-1.38-3.415h-1.608
	c0.065,1.019-0.133,2.168-0.395,3.384l-1.412,6.699h-3.056l0.592-5.189l0.295-1.479c0.428-1.97,0.688-3.415-1.378-3.415h-1.314
	l-2.168,10.083h-3.517l2.858-13.433h2.759l0.427,0.82c0,0,1.874-0.986,3.385-0.986c1.148,0,2.003,0.527,2.3,1.183
	c0.656-0.361,2.528-1.183,3.876-1.183c4.201,0,4.072,3.415,3.315,6.899l-1.412,6.699H1069.325L1069.325-12.947z"/>
<path fill="#0868AC" d="M1083.286-23.194c-2.563,0-3.384,1.443-3.843,3.548c-0.427,2.135-0.229,3.581,2.299,3.581
	c2.627,0,3.418-1.414,3.877-3.581C1086.078-21.685,1085.947-23.194,1083.286-23.194z M1081.052-12.747
	c-5.422,0-5.847-3.383-5.124-6.898c0.755-3.514,2.66-6.864,8.08-6.864c5.389,0,5.88,3.351,5.124,6.864
	C1088.378-16.065,1086.471-12.747,1081.052-12.747z"/>
<path fill="#0868AC" d="M1098.26-20.529c0.46-2.104,0.329-2.497-0.754-2.497h-1.644l-1.052,4.929l-1.61,5.154h-3.054l2.496-11.691
	l0.362-1.71h2.792l0.359,0.788c0,0,1.611-0.95,3.188-0.95c3.349,0,3.086,2.527,2.363,5.978H1098.26L1098.26-20.529z"/>
<path fill="#0868AC" d="M1110.024-23.356c-1.771,0-2.692,0.922-3.053,2.563l5.056-0.427
	C1112.259-22.336,1112.027-23.356,1110.024-23.356L1110.024-23.356z M1106.477-18.364c-0.229,1.644,0.395,2.2,2.496,2.2h5.288
	l-0.524,2.497c0,0-3.187,0.886-5.551,0.886c-5.88,0-5.945-3.314-5.192-6.863c0.757-3.482,2.104-6.929,7.786-6.929
	c5.484,0,5.749,3.315,4.401,8.209H1106.477L1106.477-18.364z"/>
<path fill="#0868AC" d="M1118.132-12.745c-1.38,0-2.232-0.395-1.87-2.003c0.326-1.646,1.345-2.038,2.726-2.038
	c1.28,0,2.166,0.392,1.84,2.038C1120.464-13.172,1119.414-12.745,1118.132-12.745z"/>
</svg>
