<?xml version="1.0" encoding="utf-8"?>
<!-- Generator: Adobe Illustrator 16.0.0, SVG Export Plug-In . SVG Version: 6.00 Build 0)  -->
<!DOCTYPE svg PUBLIC "-//W3C//DTD SVG 1.1//EN" "http://www.w3.org/Graphics/SVG/1.1/DTD/svg11.dtd">
<svg version="1.1" id="Layer_1" xmlns="http://www.w3.org/2000/svg" xmlns:xlink="http://www.w3.org/1999/xlink" x="0px" y="0px"
	 width="504px" height="504px" viewBox="168.945 45.64 504 504" enable-background="new 168.945 45.64 504 504"
	 xml:space="preserve">
<g>
	<rect x="170.945" y="47.64" fill="#F7DF1E" width="500" height="500"/>
	<path d="M506.818,438.267c10.071,16.444,23.175,28.531,46.35,28.531c19.468,0,31.904-9.729,31.904-23.175
		c0-16.11-12.778-21.816-34.206-31.189l-11.746-5.04c-33.905-14.444-56.429-32.539-56.429-70.793
		c0-35.238,26.85-62.064,68.81-62.064c29.873,0,51.349,10.396,66.825,37.619l-36.588,23.492
		c-8.056-14.444-16.746-20.135-30.237-20.135c-13.763,0-22.484,8.73-22.484,20.135c0,14.096,8.73,19.802,28.889,28.532l11.746,5.031
		c39.921,17.119,62.46,34.571,62.46,73.81c0,42.301-33.23,65.476-77.856,65.476c-43.636,0-71.826-20.793-85.619-48.047
		L506.818,438.267z M340.842,442.339c7.381,13.096,14.095,24.166,30.239,24.166c15.436,0,25.174-6.039,25.174-29.522V277.219h46.983
		v160.397c0,48.65-28.523,70.793-70.158,70.793c-37.619,0-59.405-19.469-70.484-42.916L340.842,442.339z"/>
</g>
</svg>
